<?xml version="1.0" standalone="no"?>
<!DOCTYPE svg PUBLIC "-//W3C//DTD SVG 20010904//EN"
 "http://www.w3.org/TR/2001/REC-SVG-20010904/DTD/svg10.dtd">
<svg version="1.0" xmlns="http://www.w3.org/2000/svg"
 width="99.000000pt" height="99.000000pt" viewBox="0 0 99.000000 99.000000"
 preserveAspectRatio="xMidYMid meet">
<metadata>
Created by potrace 1.14, written by Peter Selinger 2001-2017
</metadata>
<g transform="translate(0.000000,99.000000) scale(0.100000,-0.100000)"
fill="#000000" stroke="none">
<path d="M600 978 c-43 -18 -61 -25 -210 -83 -80 -31 -170 -66 -200 -77 -95
-35 -90 -12 -90 -399 0 -336 0 -338 23 -363 29 -34 102 -55 180 -53 64 2 56 0
442 152 l130 51 3 341 c3 395 7 379 -83 343 -39 -16 -65 -20 -90 -16 -33 7
-35 9 -35 49 0 62 -19 77 -70 55z"/>
</g>
</svg>
